<svg xmlns="http://www.w3.org/2000/svg" aria-hidden="true" overflow="hidden" style="position:absolute;width:0;height:0">
  <defs>
    <symbol id="icon-automobile" viewBox="0 0 32 28">
      <path d="M7.5 17c0-1.375-1.125-2.5-2.5-2.5S2.5 15.625 2.5 17s1.125 2.5 2.5 2.5 2.5-1.125 2.5-2.5zm.562-5h15.875l-1.391-5.578C22.499 6.25 22.187 6 21.999 6h-12c-.187 0-.5.25-.547.422zM29.5 17c0-1.375-1.125-2.5-2.5-2.5s-2.5 1.125-2.5 2.5 1.125 2.5 2.5 2.5 2.5-1.125 2.5-2.5zm2.5-1.5v6c0 .281-.219.5-.5.5H30v2a3.001 3.001 0 0 1-6 0v-2H8v2a3.001 3.001 0 0 1-6 0v-2H.5a.494.494 0 0 1-.5-.5v-6C0 13.563 1.563 12 3.5 12h.438l1.641-6.547C6.063 3.484 7.97 2 10.001 2h12c2.031 0 3.938 1.484 4.422 3.453L28.064 12h.438c1.937 0 3.5 1.563 3.5 3.5z"/>
    </symbol>
    <symbol id="icon-close" viewBox="0 0 20 20">
      <path d="M10 8.586 2.929 1.515 1.515 2.929 8.586 10l-7.071 7.071 1.414 1.414L10 11.414l7.071 7.071 1.414-1.414L11.414 10l7.071-7.071-1.414-1.414L10 8.586z"/>
    </symbol>
  </defs>
</svg>
